<svg xmlns="http://www.w3.org/2000/svg" viewBox="0 0 900 560">
<defs>
  <linearGradient id="bgp" x1="0" x2="1" y1="0" y2="1">
    <stop stop-color="#fff7db"/>
    <stop offset="1" stop-color="#e6c8d5"/>
  </linearGradient>
  <linearGradient id="woodp" x1="0" x2="1">
    <stop stop-color="#c98b4c"/>
    <stop offset=".5" stop-color="#efc98e"/>
    <stop offset="1" stop-color="#ad6f35"/>
  </linearGradient>
  <filter id="sp" x="-30%" y="-30%" width="170%" height="180%">
    <feDropShadow dx="0" dy="17" stdDeviation="14" flood-opacity=".24"/>
  </filter>
</defs>

<rect width="900" height="560" fill="url(#bgp)"/>

<g transform="translate(85 120) rotate(-7 140 140)" filter="url(#sp)">
  <circle cx="140" cy="140" r="120" fill="url(#woodp)" stroke="#75445a" stroke-width="7"/>
  <circle cx="92" cy="38" r="28" fill="#fff7db" stroke="#75445a" stroke-width="7"/>
  <circle cx="140" cy="128" r="64" fill="none" stroke="#531c33" stroke-width="10"/>
  <circle cx="115" cy="116" r="8" fill="#531c33"/>
  <circle cx="165" cy="116" r="8" fill="#531c33"/>
  <path d="M109 154 Q140 181 172 154" fill="none" stroke="#531c33" stroke-width="9" stroke-linecap="round"/>
  <path d="M91 70 Q140 30 190 70" fill="none" stroke="#e17d01" stroke-width="18" stroke-linecap="round"/>
</g>

<g transform="translate(365 103) rotate(5 130 150)" filter="url(#sp)">
  <rect x="20" y="20" width="220" height="310" rx="28" fill="url(#woodp)" stroke="#75445a" stroke-width="7"/>
  <circle cx="130" cy="44" r="22" fill="#fff7db" stroke="#75445a" stroke-width="7"/>
  <path d="M80 123 Q130 60 180 123 L172 218 Q130 270 88 218Z"
        fill="none" stroke="#531c33" stroke-width="10" stroke-linejoin="round"/>
  <path d="M100 138 L119 126 M160 138 L141 126" stroke="#531c33" stroke-width="8" stroke-linecap="round"/>
  <path d="M108 186 Q130 201 153 186" fill="none" stroke="#531c33" stroke-width="8" stroke-linecap="round"/>
</g>

<g transform="translate(665 135) rotate(8 95 110)" filter="url(#sp)">
  <path d="M95 10 L164 50 L176 130 L132 203 L58 203 L14 130 L26 50Z"
        fill="url(#woodp)" stroke="#75445a" stroke-width="7"/>
  <circle cx="142" cy="39" r="24" fill="#fff7db" stroke="#75445a" stroke-width="7"/>
  <path d="M60 77 L130 77 L143 129 Q95 174 47 129Z"
        fill="none" stroke="#531c33" stroke-width="9" stroke-linejoin="round"/>
  <circle cx="73" cy="104" r="7" fill="#531c33"/>
  <circle cx="116" cy="104" r="7" fill="#531c33"/>
</g>

<text x="55" y="515" font-family="Arial" font-size="24" fill="#531c33">
  Personagens diversos — próximo gerador
</text>
</svg>